<svg width="60" height="60" viewBox="0 0 60 60" fill="none" xmlns="http://www.w3.org/2000/svg">
<g id="FilmReel" clip-path="url(#clip0_1_51)">
<g id="Vector" filter="url(#filter0_f_1_51)">
<path d="M52.5166 38.5288L44.377 41.6121C47.0771 38.0342 48.3945 33.6016 48.0868 29.1298C47.7791 24.6579 45.867 20.4475 42.7023 17.2732C39.5375 14.0988 35.333 12.174 30.862 11.8527C26.3911 11.5315 21.9546 12.8355 18.3685 15.5247C14.7824 18.214 12.288 22.1078 11.3442 26.4897C10.4003 30.8717 11.0704 35.447 13.2313 39.3742C15.3922 43.3014 18.8985 46.3163 23.1052 47.8642C27.3119 49.4121 31.936 49.3889 36.127 47.799L53.5309 41.2063C53.886 41.0718 54.1731 40.8018 54.329 40.4556C54.485 40.1094 54.497 39.7155 54.3625 39.3604C54.228 39.0053 53.958 38.7182 53.6118 38.5623C53.2657 38.4063 52.8717 38.3943 52.5166 38.5288ZM22.7695 36.7848C22.1076 37.0355 21.3861 37.0844 20.6964 36.9251C20.0067 36.7658 19.3797 36.4056 18.8948 35.89C18.4098 35.3744 18.0886 34.7266 17.9718 34.0284C17.855 33.3302 17.9478 32.6131 18.2386 31.9678C18.5294 31.3224 19.005 30.7777 19.6053 30.4026C20.2056 30.0276 20.9037 29.8389 21.6112 29.8606C22.3187 29.8822 23.0039 30.1132 23.5802 30.5243C24.1565 30.9354 24.5979 31.5081 24.8486 32.1701C25.1849 33.0577 25.1547 34.0426 24.7648 34.908C24.3749 35.7734 23.6572 36.4485 22.7695 36.7848ZM33.8449 41.7746C33.183 42.0253 32.4615 42.0742 31.7718 41.9149C31.0821 41.7556 30.4551 41.3954 29.9701 40.8798C29.4851 40.3642 29.1639 39.7163 29.0471 39.0182C28.9303 38.32 29.0232 37.6029 29.314 36.9575C29.6047 36.3122 30.0803 35.7675 30.6807 35.3924C31.281 35.0173 31.979 34.8287 32.6866 34.8504C33.3941 34.872 34.0793 35.103 34.6556 35.5141C35.2318 35.9252 35.6732 36.4979 35.924 37.1598C36.2602 38.0475 36.2301 39.0324 35.8402 39.8978C35.4503 40.7632 34.7326 41.4383 33.8449 41.7746ZM27.7593 25.7094C27.0974 25.9602 26.3759 26.009 25.6862 25.8497C24.9965 25.6905 24.3695 25.3303 23.8845 24.8146C23.3996 24.299 23.0784 23.6512 22.9616 22.953C22.8448 22.2549 22.9376 21.5378 23.2284 20.8924C23.5192 20.247 23.9948 19.7023 24.5951 19.3273C25.1954 18.9522 25.8935 18.7635 26.601 18.7852C27.3085 18.8069 27.9937 19.0378 28.57 19.4489C29.1462 19.86 29.5877 20.4327 29.8384 21.0947C30.1747 21.9823 30.1445 22.9672 29.7546 23.8326C29.3647 24.6981 28.647 25.3732 27.7593 25.7094ZM34.22 28.6201C33.9692 27.9582 33.9204 27.2367 34.0796 26.547C34.2389 25.8573 34.5991 25.2303 35.1147 24.7453C35.6303 24.2604 36.2782 23.9392 36.9763 23.8224C37.6745 23.7056 38.3916 23.7984 39.037 24.0892C39.6824 24.38 40.227 24.8556 40.6021 25.4559C40.9772 26.0562 41.1658 26.7543 41.1442 27.4618C41.1225 28.1693 40.8916 28.8545 40.4805 29.4308C40.0694 30.007 39.4967 30.4485 38.8347 30.6992C37.947 31.0355 36.9622 31.0053 36.0967 30.6154C35.2313 30.2255 34.5562 29.5078 34.22 28.6201Z" fill="#007AFF" fill-opacity="0.44"/>
</g>
</g>
<defs>
<filter id="filter0_f_1_51" x="4.01153" y="4.8894" width="57.3594" height="51.0347" filterUnits="userSpaceOnUse" color-interpolation-filters="sRGB">
<feFlood flood-opacity="0" result="BackgroundImageFix"/>
<feBlend mode="normal" in="SourceGraphic" in2="BackgroundImageFix" result="shape"/>
<feGaussianBlur stdDeviation="3.45776" result="effect1_foregroundBlur_1_51"/>
</filter>
<clipPath id="clip0_1_51">
<rect width="45.8111" height="45.8111" fill="white" transform="translate(0 17.089) rotate(-20.747)"/>
</clipPath>
</defs>
</svg>
