<svg width="233" height="251" viewBox="0 0 233 251" fill="none" xmlns="http://www.w3.org/2000/svg">
<g id="Frame 40194">
<g id="Vector">
<path d="M148.985 1.01693C148.985 1.59993 148.985 2.18293 148.985 2.7836C149.626 2.88836 150.267 2.99312 150.927 3.10105C160.084 5.17623 165.984 10.741 170.92 18.4041C175.129 25.9069 174.289 34.4242 173.067 42.6453C171.462 53.7904 172.901 63.3177 179.111 73.0051C183.405 78.1812 188.535 79.5824 195.04 80.296C200.687 80.9917 205.424 82.8623 210.576 85.1543C211.7 85.6458 211.7 85.6458 212.847 86.1472C219.715 89.3112 224.979 92.8697 228.277 99.8397C228.903 101.121 228.903 101.121 229.543 102.428C235.274 116.87 233.044 133.079 228.887 147.65C228.688 148.357 228.489 149.063 228.283 149.792C227.058 154.1 225.776 158.389 224.448 162.667C223.862 162.667 223.276 162.667 222.673 162.667C222.575 163.214 222.478 163.762 222.378 164.326C222.237 165.109 222.096 165.891 221.951 166.697C221.796 167.564 221.64 168.431 221.48 169.325C221.106 171.284 220.701 173.238 220.256 175.183C218.274 184.016 217.599 192.735 217.098 201.759C216.138 218.723 214.791 234.777 209.356 251C174.198 251 139.041 251 102.819 251C104.595 245.7 104.595 245.7 105.36 243.833C107.66 238.048 107.4 232.784 106.981 226.653C106.899 225.19 106.899 225.19 106.816 223.698C106.681 221.314 106.527 218.932 106.37 216.55C101.976 215.676 97.5809 214.801 93.0531 213.9C93.0531 213.317 93.0531 212.734 93.0531 212.133C92.5026 212.067 91.9521 212.001 91.385 211.933C79.7507 210.215 69.7946 205.503 60.2043 198.883C58.763 197.924 57.3204 196.967 55.8762 196.013C55.2388 195.584 54.6013 195.156 53.9446 194.715C52.4961 193.768 51.0001 192.893 49.4951 192.038C48.9275 191.673 48.3599 191.309 47.775 190.933C47.775 190.35 47.775 189.767 47.775 189.167C46.7313 188.975 46.7313 188.975 45.6665 188.78C43.336 188.283 43.336 188.283 41.5604 187.4C39.7655 187.229 37.9701 187.062 36.1726 186.92C23.8426 185.903 11.2266 184.469 2.1779 175.282C0.721342 173.267 0.721342 173.267 0 169.844C0.745755 166.99 1.11751 166.189 3.38476 164.433C5.07258 164.133 5.07258 164.133 6.94638 164.175C7.61874 164.183 8.29109 164.192 8.98382 164.201C9.68136 164.223 10.3789 164.245 11.0976 164.268C11.8054 164.28 12.5132 164.292 13.2425 164.304C14.9877 164.335 16.7327 164.383 18.4774 164.433C18.4774 163.85 18.4774 163.267 18.4774 162.667C26.4853 158.908 34.173 160.02 42.4482 162.667C42.8382 163.119 43.2283 163.572 43.6301 164.038C45.8652 165.967 47.7042 165.616 50.6153 165.576C52.2247 165.563 52.2247 165.563 53.8665 165.55C54.9875 165.527 56.1085 165.505 57.2634 165.482C58.9603 165.464 58.9603 165.464 60.6915 165.446C63.4888 165.415 66.2854 165.371 69.0823 165.317C68.4151 162.421 68.4151 162.421 65.5311 160.9C64.9207 158.14 64.9207 158.14 64.6433 155.6C64.0574 155.6 63.4714 155.6 62.8677 155.6C62.8677 155.017 62.8677 154.434 62.8677 153.833C59.1107 154.194 55.3537 154.556 51.5967 154.917C50.3225 155.04 49.0483 155.162 47.7741 155.285C46.5363 155.404 45.2984 155.523 44.0605 155.642C42.8469 155.759 41.6331 155.874 40.4192 155.988C37.7854 156.237 35.1582 156.506 32.5323 156.829C31.7372 156.926 30.9421 157.022 30.1229 157.122C29.4487 157.212 28.7745 157.302 28.0799 157.395C26.4677 157.367 26.4677 157.367 24.6921 155.6C23.0128 147.403 22.93 137.287 24.6921 129.1C26.916 127.994 28.4284 128.116 30.9136 128.131C31.7891 128.133 32.6646 128.136 33.5667 128.139C34.4834 128.147 35.4 128.154 36.3445 128.162C37.7299 128.168 37.7299 128.168 39.1432 128.174C41.4286 128.184 43.714 128.199 45.9994 128.217C45.8802 127.505 45.7611 126.794 45.6383 126.061C45.3541 124.364 45.0698 122.668 44.7856 120.971C44.2647 118.68 43.5069 117.039 42.4482 114.967C41.4007 109.996 42.5387 106.508 45.0006 102.158C47.8497 96.9911 48.4142 92.6047 48.8735 86.8557C49.3728 81.417 51.0019 77.1847 53.9896 72.5669C54.5756 72.5669 55.1615 72.5669 55.7653 72.5669C55.9987 72.0419 56.2322 71.517 56.4727 70.9762C58.2107 67.8152 60.7665 65.7223 63.7555 63.7335C66.8073 62.9606 66.8073 62.9606 69.0823 62.8502C71.5477 67.6638 73.853 72.5026 75.9628 77.4804C76.2432 78.1129 76.5236 78.7455 76.8125 79.3972C78.5537 83.5183 78.9303 86.5956 78.8482 91.1168C79.6471 93.2125 79.6471 93.2125 80.9012 94.9262C81.2823 95.5058 81.6634 96.0854 82.0561 96.6825C83.3545 98.4156 83.3545 98.4156 85.9506 99.9502C85.9506 100.533 85.9506 101.116 85.9506 101.717C88.6337 101.639 91.3143 101.545 93.9964 101.441C94.7488 101.421 95.5013 101.401 96.2766 101.38C102.682 101.11 107.045 99.336 112.64 96.2512C115.687 94.697 118 94.3056 121.463 94.6502C121.463 94.0672 121.463 93.4842 121.463 92.8835C123.66 92.009 123.66 92.009 125.902 91.1168C125.545 89.4225 125.545 89.4225 125.181 87.6939C125.047 87.0585 124.913 86.4232 124.775 85.7685C124.195 83.7229 124.195 83.7229 121.463 82.2835C121.463 81.1175 121.463 79.9515 121.463 78.7502C119.308 77.1693 119.308 77.1693 117.024 76.1002C117.317 74.0597 117.61 72.0192 117.912 69.9169C116.154 69.9169 114.396 69.9169 112.585 69.9169C112.616 68.9171 112.647 67.9174 112.678 66.8873C112.703 65.5784 112.728 64.2695 112.751 62.9606C112.774 62.3013 112.796 61.642 112.819 60.9628C112.878 58.8202 112.878 58.8202 112.585 55.7835C111.266 54.909 111.266 54.909 109.921 54.0169C106.223 44.9273 104.471 29.9611 107.258 20.4502C109.71 16.1417 112.687 13.2263 116.469 10.1263C116.959 9.70898 117.449 9.29165 117.953 8.86168C122.079 5.4263 125.664 2.7836 131.229 2.7836C131.229 2.2006 131.229 1.6176 131.229 1.01693C137.082 -0.485945 143.102 -0.183611 148.985 1.01693ZM53.9896 77.8669C52.5189 81.73 52.0028 85.0112 51.8811 89.1293C51.511 95.4627 49.9938 100.606 46.7693 106.071C44.7574 110.85 46.3149 116.844 47.9415 121.55C49.0103 124.1 50.1238 126.61 51.3262 129.1C53.3771 129.1 55.4279 129.1 57.5409 129.1C57.8338 127.934 58.1268 126.768 58.4287 125.567C57.8427 125.567 57.2568 125.567 56.6531 125.567C56.6531 124.692 56.6531 123.818 56.6531 122.917C57.239 122.917 57.825 122.917 58.4287 122.917C59.0055 121.851 59.0055 121.851 59.5939 120.764C61.0921 118.5 61.0921 118.5 63.4781 117.782C64.1556 117.728 64.8331 117.673 65.5311 117.617C66.6315 113.767 66.1193 111.03 65.1427 107.182C64.8875 106.157 64.6323 105.131 64.3693 104.074C64.0655 102.907 64.0655 102.907 63.7555 101.717C63.1695 101.717 62.5836 101.717 61.9799 101.717C61.8031 100.374 61.8031 100.374 61.6227 99.0047C61.4644 97.8108 61.306 96.617 61.1476 95.4231C61.0703 94.8355 60.9931 94.248 60.9135 93.6426C60.6839 91.9165 60.4442 90.1916 60.2043 88.4668C60.0738 87.5104 59.9433 86.5539 59.8089 85.5684C59.1606 82.4067 57.7535 80.3847 55.7653 77.8669C55.1793 77.8669 54.5933 77.8669 53.9896 77.8669ZM69.0823 94.6502C69.0823 95.8162 69.0823 96.9822 69.0823 98.1835C70.2542 98.1835 71.4261 98.1835 72.6336 98.1835C73.2195 99.641 73.8055 101.098 74.4092 102.6C77.0459 102.6 79.6827 102.6 82.3994 102.6C81.0706 98.6339 78.9958 95.1108 76.1848 92.0002C73.4502 92.0002 71.4693 93.411 69.0823 94.6502ZM95.7165 111.433C96.0095 114.057 96.3024 116.68 96.6043 119.383C95.4324 119.675 94.2605 119.966 93.0531 120.267C92.7601 121.433 92.4671 122.599 92.1653 123.8C93.9231 124.383 95.681 124.966 97.4921 125.567C97.793 124.04 98.0877 122.513 98.3799 120.985C98.5447 120.134 98.7095 119.283 98.8793 118.407C99.24 116.033 99.3381 113.829 99.2677 111.433C98.0958 111.433 96.9239 111.433 95.7165 111.433ZM61.9799 120.267C61.3939 121.433 60.808 122.599 60.2043 123.8C60.7902 123.8 61.3762 123.8 61.9799 123.8C62.2729 125.258 62.5658 126.715 62.8677 128.217C64.0396 127.925 65.2115 127.634 66.4189 127.333C66.4189 126.75 66.4189 126.167 66.4189 125.567C65.833 125.275 65.247 124.984 64.6433 124.683C64.0884 122.42 64.0884 122.42 63.7555 120.267C63.1695 120.267 62.5836 120.267 61.9799 120.267ZM63.7555 173.267C66.4971 174.825 67.5137 175.033 70.8579 175.033C70.8579 174.45 70.8579 173.867 70.8579 173.267C68.5141 173.267 66.1703 173.267 63.7555 173.267Z" fill="#050716"/>
<path d="M148.985 1.01693C148.985 1.59993 148.985 2.18293 148.985 2.7836C149.626 2.88836 150.267 2.99312 150.927 3.10105C160.084 5.17623 165.984 10.741 170.92 18.4041C175.129 25.9069 174.289 34.4242 173.067 42.6453C171.462 53.7904 172.901 63.3177 179.111 73.0051C183.405 78.1812 188.535 79.5824 195.04 80.296C200.687 80.9917 205.424 82.8623 210.576 85.1543C211.7 85.6458 211.7 85.6458 212.847 86.1472C219.715 89.3112 224.979 92.8697 228.277 99.8397C228.903 101.121 228.903 101.121 229.543 102.428C235.274 116.87 233.044 133.079 228.887 147.65C228.688 148.357 228.489 149.063 228.283 149.792C227.058 154.1 225.776 158.389 224.448 162.667C223.862 162.667 223.276 162.667 222.673 162.667C222.575 163.214 222.478 163.762 222.378 164.326C222.237 165.109 222.096 165.891 221.951 166.697C221.796 167.564 221.64 168.431 221.48 169.325C221.106 171.284 220.701 173.238 220.256 175.183C218.274 184.016 217.599 192.735 217.098 201.759C216.138 218.723 214.791 234.777 209.356 251C174.198 251 139.041 251 102.819 251C104.595 245.7 104.595 245.7 105.36 243.833C107.66 238.048 107.4 232.784 106.981 226.653C106.899 225.19 106.899 225.19 106.816 223.698C106.681 221.314 106.527 218.932 106.37 216.55C101.976 215.676 97.5809 214.801 93.0531 213.9C93.0531 213.317 93.0531 212.734 93.0531 212.133C92.5026 212.067 91.9521 212.001 91.385 211.933C79.7507 210.215 69.7946 205.503 60.2043 198.883C58.763 197.924 57.3204 196.967 55.8762 196.013C55.2388 195.584 54.6013 195.156 53.9446 194.715C52.4961 193.768 51.0001 192.893 49.4951 192.038C48.9275 191.673 48.3599 191.309 47.775 190.933C47.775 190.35 47.775 189.767 47.775 189.167C46.7313 188.975 46.7313 188.975 45.6665 188.78C43.336 188.283 43.336 188.283 41.5604 187.4C39.7655 187.229 37.9701 187.062 36.1726 186.92C23.8426 185.903 11.2266 184.469 2.1779 175.282C0.721342 173.267 0.721342 173.267 0 169.844C0.745755 166.99 1.11751 166.189 3.38476 164.433C5.07258 164.133 5.07258 164.133 6.94638 164.175C7.61874 164.183 8.29109 164.192 8.98382 164.201C9.68136 164.223 10.3789 164.245 11.0976 164.268C11.8054 164.28 12.5132 164.292 13.2425 164.304C14.9877 164.335 16.7327 164.383 18.4774 164.433C18.4774 163.85 18.4774 163.267 18.4774 162.667C26.4853 158.908 34.173 160.02 42.4482 162.667C42.8382 163.119 43.2283 163.572 43.6301 164.038C45.8652 165.967 47.7042 165.616 50.6153 165.576C52.2247 165.563 52.2247 165.563 53.8665 165.55C54.9875 165.527 56.1085 165.505 57.2634 165.482C58.9603 165.464 58.9603 165.464 60.6915 165.446C63.4888 165.415 66.2854 165.371 69.0823 165.317C68.4151 162.421 68.4151 162.421 65.5311 160.9C64.9207 158.14 64.9207 158.14 64.6433 155.6C64.0574 155.6 63.4714 155.6 62.8677 155.6C62.8677 155.017 62.8677 154.434 62.8677 153.833C59.1107 154.194 55.3537 154.556 51.5967 154.917C50.3225 155.04 49.0483 155.162 47.7741 155.285C46.5363 155.404 45.2984 155.523 44.0605 155.642C42.8469 155.759 41.6331 155.874 40.4192 155.988C37.7854 156.237 35.1582 156.506 32.5323 156.829C31.7372 156.926 30.9421 157.022 30.1229 157.122C29.4487 157.212 28.7745 157.302 28.0799 157.395C26.4677 157.367 26.4677 157.367 24.6921 155.6C23.0128 147.403 22.93 137.287 24.6921 129.1C26.916 127.994 28.4284 128.116 30.9136 128.131C31.7891 128.133 32.6646 128.136 33.5667 128.139C34.4834 128.147 35.4 128.154 36.3445 128.162C37.7299 128.168 37.7299 128.168 39.1432 128.174C41.4286 128.184 43.714 128.199 45.9994 128.217C45.8802 127.505 45.7611 126.794 45.6383 126.061C45.3541 124.364 45.0698 122.668 44.7856 120.971C44.2647 118.68 43.5069 117.039 42.4482 114.967C41.4007 109.996 42.5387 106.508 45.0006 102.158C47.8497 96.9911 48.4142 92.6047 48.8735 86.8557C49.3728 81.417 51.0019 77.1847 53.9896 72.5669C54.5756 72.5669 55.1615 72.5669 55.7653 72.5669C55.9987 72.0419 56.2322 71.517 56.4727 70.9762C58.2107 67.8152 60.7665 65.7223 63.7555 63.7335C66.8073 62.9606 66.8073 62.9606 69.0823 62.8502C71.5477 67.6638 73.853 72.5026 75.9628 77.4804C76.2432 78.1129 76.5236 78.7455 76.8125 79.3972C78.5537 83.5183 78.9303 86.5956 78.8482 91.1168C79.6471 93.2125 79.6471 93.2125 80.9012 94.9262C81.2823 95.5058 81.6634 96.0854 82.0561 96.6825C83.3545 98.4156 83.3545 98.4156 85.9506 99.9502C85.9506 100.533 85.9506 101.116 85.9506 101.717C88.6337 101.639 91.3143 101.545 93.9964 101.441C94.7488 101.421 95.5013 101.401 96.2766 101.38C102.682 101.11 107.045 99.336 112.64 96.2512C115.687 94.697 118 94.3056 121.463 94.6502C121.463 94.0672 121.463 93.4842 121.463 92.8835C123.66 92.009 123.66 92.009 125.902 91.1168C125.545 89.4225 125.545 89.4225 125.181 87.6939C125.047 87.0585 124.913 86.4232 124.775 85.7685C124.195 83.7229 124.195 83.7229 121.463 82.2835C121.463 81.1175 121.463 79.9515 121.463 78.7502C119.308 77.1693 119.308 77.1693 117.024 76.1002C117.317 74.0597 117.61 72.0192 117.912 69.9169C116.154 69.9169 114.396 69.9169 112.585 69.9169C112.616 68.9171 112.647 67.9174 112.678 66.8873C112.703 65.5784 112.728 64.2695 112.751 62.9606C112.774 62.3013 112.796 61.642 112.819 60.9628C112.878 58.8202 112.878 58.8202 112.585 55.7835C111.266 54.909 111.266 54.909 109.921 54.0169C106.223 44.9273 104.471 29.9611 107.258 20.4502C109.71 16.1417 112.687 13.2263 116.469 10.1263C116.959 9.70898 117.449 9.29165 117.953 8.86168C122.079 5.4263 125.664 2.7836 131.229 2.7836C131.229 2.2006 131.229 1.6176 131.229 1.01693C137.082 -0.485945 143.102 -0.183611 148.985 1.01693ZM53.9896 77.8669C52.5189 81.73 52.0028 85.0112 51.8811 89.1293C51.511 95.4627 49.9938 100.606 46.7693 106.071C44.7574 110.85 46.3149 116.844 47.9415 121.55C49.0103 124.1 50.1238 126.61 51.3262 129.1C53.3771 129.1 55.4279 129.1 57.5409 129.1C57.8338 127.934 58.1268 126.768 58.4287 125.567C57.8427 125.567 57.2568 125.567 56.6531 125.567C56.6531 124.692 56.6531 123.818 56.6531 122.917C57.239 122.917 57.825 122.917 58.4287 122.917C59.0055 121.851 59.0055 121.851 59.5939 120.764C61.0921 118.5 61.0921 118.5 63.4781 117.782C64.1556 117.728 64.8331 117.673 65.5311 117.617C66.6315 113.767 66.1193 111.03 65.1427 107.182C64.8875 106.157 64.6323 105.131 64.3693 104.074C64.0655 102.907 64.0655 102.907 63.7555 101.717C63.1695 101.717 62.5836 101.717 61.9799 101.717C61.8031 100.374 61.8031 100.374 61.6227 99.0047C61.4644 97.8108 61.306 96.617 61.1476 95.4231C61.0703 94.8355 60.9931 94.248 60.9135 93.6426C60.6839 91.9165 60.4442 90.1916 60.2043 88.4668C60.0738 87.5104 59.9433 86.5539 59.8089 85.5684C59.1606 82.4067 57.7535 80.3847 55.7653 77.8669C55.1793 77.8669 54.5933 77.8669 53.9896 77.8669ZM69.0823 94.6502C69.0823 95.8162 69.0823 96.9822 69.0823 98.1835C70.2542 98.1835 71.4261 98.1835 72.6336 98.1835C73.2195 99.641 73.8055 101.098 74.4092 102.6C77.0459 102.6 79.6827 102.6 82.3994 102.6C81.0706 98.6339 78.9958 95.1108 76.1848 92.0002C73.4502 92.0002 71.4693 93.411 69.0823 94.6502ZM95.7165 111.433C96.0095 114.057 96.3024 116.68 96.6043 119.383C95.4324 119.675 94.2605 119.966 93.0531 120.267C92.7601 121.433 92.4671 122.599 92.1653 123.8C93.9231 124.383 95.681 124.966 97.4921 125.567C97.793 124.04 98.0877 122.513 98.3799 120.985C98.5447 120.134 98.7095 119.283 98.8793 118.407C99.24 116.033 99.3381 113.829 99.2677 111.433C98.0958 111.433 96.9239 111.433 95.7165 111.433ZM61.9799 120.267C61.3939 121.433 60.808 122.599 60.2043 123.8C60.7902 123.8 61.3762 123.8 61.9799 123.8C62.2729 125.258 62.5658 126.715 62.8677 128.217C64.0396 127.925 65.2115 127.634 66.4189 127.333C66.4189 126.75 66.4189 126.167 66.4189 125.567C65.833 125.275 65.247 124.984 64.6433 124.683C64.0884 122.42 64.0884 122.42 63.7555 120.267C63.1695 120.267 62.5836 120.267 61.9799 120.267ZM63.7555 173.267C66.4971 174.825 67.5137 175.033 70.8579 175.033C70.8579 174.45 70.8579 173.867 70.8579 173.267C68.5141 173.267 66.1703 173.267 63.7555 173.267Z" fill="#050716"/>
</g>
<path id="Vector_2" d="M51.3262 172.383C54.3768 172.586 57.4261 172.799 60.4748 173.029C62.3828 173.167 64.2925 173.289 66.2039 173.367C70.0591 173.594 71.3803 173.846 74.4647 176.414C75.0323 177.124 75.5999 177.835 76.1848 178.567C76.4778 177.984 76.7707 177.401 77.0726 176.8C79.4825 176.524 81.8127 176.347 84.2305 176.248C84.904 176.214 85.5775 176.18 86.2714 176.144C87.9397 176.061 89.6086 175.988 91.2775 175.917C91.2775 176.791 91.2775 177.666 91.2775 178.567C90.6915 178.567 90.1056 178.567 89.5019 178.567C89.5019 179.15 89.5019 179.733 89.5019 180.333C86.5439 180.561 83.5846 180.754 80.6238 180.941C79.7941 181.005 78.9644 181.069 78.1095 181.136C72.579 181.463 68.7876 180.914 63.7555 178.567C63.4625 178.275 63.1696 177.984 62.8677 177.683C60.6322 177.54 58.3997 177.459 56.1606 177.394C53.9896 176.8 53.9896 176.8 52.3736 174.55C52.0279 173.835 51.6823 173.12 51.3262 172.383Z" fill="#050716"/>
<path id="Vector_3" d="M53.1019 74.3335C53.9808 74.3335 54.8597 74.3335 55.7653 74.3335C55.7653 75.4995 55.7653 76.6655 55.7653 77.8668C55.1793 77.8668 54.5934 77.8668 53.9897 77.8668C53.9545 78.3557 53.9193 78.8447 53.883 79.3484C52.4684 98.0303 52.4684 98.0303 47.6433 106.064C46.6716 108.424 46.8879 110.025 47.2202 112.538C47.3186 113.326 47.417 114.114 47.5184 114.925C47.6031 115.522 47.6878 116.119 47.775 116.733C46.6031 117.316 45.4312 117.899 44.2238 118.5C42.0504 114.594 41.6625 111.416 42.4482 107.017C43.2422 105.369 44.0994 103.751 45.0006 102.158C47.8614 96.9712 48.4572 92.5075 48.9359 86.7314C49.3812 81.8015 50.4426 78.4787 53.1019 74.3335Z" fill="#050716"/>
<path id="Vector_4" d="M106.37 101.717C104.087 103.147 103.106 103.522 100.377 103.152C99.7183 102.97 99.0591 102.788 98.3799 102.6C98.6729 104.349 98.9659 106.098 99.2677 107.9C98.169 107.718 97.0704 107.536 95.9384 107.348C92.8709 106.955 91.2812 107.113 88.614 108.783C87.7351 108.783 86.8562 108.783 85.9506 108.783C85.913 106.723 85.9143 104.661 85.9506 102.6C87.8658 100.695 92.0016 101.304 94.6622 101.165C95.3907 101.119 96.1191 101.074 96.8696 101.027C97.5751 100.988 98.2807 100.949 99.0076 100.909C99.9755 100.855 99.9755 100.855 100.963 100.8C102.895 100.835 104.52 101.18 106.37 101.717Z" fill="#050716"/>
<path id="Vector_5" d="M63.8665 117.506C64.7088 117.543 65.5511 117.579 66.4189 117.617C66.1259 118.783 65.833 119.949 65.5311 121.15C67.7284 122.025 67.7284 122.025 69.9701 122.917C69.9701 123.5 69.9701 124.083 69.9701 124.683C67.9193 124.392 65.8685 124.1 63.7555 123.8C63.7555 122.634 63.7555 121.468 63.7555 120.267C62.5836 121.433 61.4117 122.599 60.2043 123.8C60.7902 123.8 61.3762 123.8 61.9799 123.8C62.2729 125.258 62.5659 126.715 62.8677 128.217C64.0396 127.925 65.2115 127.634 66.4189 127.333C66.7119 128.791 67.0049 130.248 67.3067 131.75C65.8419 131.75 64.377 131.75 62.8677 131.75C62.5747 132.333 62.2818 132.916 61.9799 133.517C59.0847 128.956 58.5825 124.657 59.3165 119.383C61.0921 117.617 61.0921 117.617 63.8665 117.506Z" fill="#050716"/>
<path id="Vector_6" d="M78.4043 90.2335C79.942 92.2735 81.1351 94.4471 82.3543 96.686C83.3076 98.3671 83.3076 98.3671 85.2848 100.005C86.8384 101.717 86.8384 101.717 87.2268 104.367C86.808 107.225 86.1194 108.454 84.175 110.55C84.2483 109.967 84.3215 109.384 84.397 108.784C83.9819 103.828 81.3911 99.8058 78.1823 96.0856C76.1848 93.7669 76.1848 93.7669 76.1848 92.0002C73.1085 93.312 73.1085 93.312 69.9701 94.6502C69.9701 93.4842 69.9701 92.3182 69.9701 91.1169C71.1539 90.8224 72.3376 90.528 73.5214 90.2335C74.1256 90.0149 74.7299 89.7963 75.3524 89.571C77.0726 89.3502 77.0726 89.3502 78.4043 90.2335Z" fill="#050716"/>
<path id="Vector_7" d="M91.2775 175.917C91.2775 176.791 91.2775 177.666 91.2775 178.567C90.6915 178.567 90.1056 178.567 89.5018 178.567C89.5018 179.15 89.5018 179.733 89.5018 180.333C86.4508 180.533 83.3989 180.711 80.3464 180.885C79.4794 180.942 78.6125 180.999 77.7194 181.058C76.4705 181.126 76.4705 181.126 75.1964 181.196C74.0457 181.265 74.0457 181.265 72.8718 181.336C70.8579 181.217 70.8579 181.217 68.1945 179.45C68.761 179.407 69.3275 179.364 69.9112 179.319C70.6448 179.253 71.3783 179.187 72.1342 179.119C72.8655 179.057 73.5968 178.996 74.3502 178.932C74.9556 178.812 75.561 178.691 76.1848 178.567C76.4777 177.984 76.7707 177.401 77.0726 176.8C79.5903 176.434 79.5903 176.434 82.7323 176.248C84.2808 176.149 84.2808 176.149 85.8605 176.048C87.6646 175.962 89.4713 175.917 91.2775 175.917Z" fill="#050716"/>
<path id="Vector_8" d="M59.3165 125.567C60.4884 125.858 61.6603 126.15 62.8677 126.45C62.8677 127.033 62.8677 127.616 62.8677 128.217C64.0396 127.925 65.2115 127.634 66.4189 127.333C66.7119 128.791 67.0049 130.248 67.3067 131.75C65.8418 131.75 64.377 131.75 62.8677 131.75C62.5747 132.333 62.2818 132.916 61.9799 133.517C59.3165 128.548 59.3165 128.548 59.3165 125.567Z" fill="#050716"/>
<path id="Vector_9" d="M30.9067 160.9C40.6106 161.086 40.6106 161.086 43.5024 164.047C44.299 165.113 44.299 165.113 45.1116 166.2C43.9397 166.492 42.7678 166.783 41.5604 167.083C41.1758 166.519 40.7913 165.954 40.3951 165.372C38.9747 163.314 38.9747 163.314 36.2335 162.667C35.9406 163.541 35.6476 164.416 35.3457 165.317C34.4668 164.734 33.5879 164.151 32.6823 163.55C32.6823 162.967 32.6823 162.384 32.6823 161.783C32.0964 161.492 31.5104 161.2 30.9067 160.9Z" fill="#050716"/>
<path id="Vector_10" d="M18.4774 162.667C18.7704 163.833 19.0634 164.999 19.3652 166.2C17.0214 165.909 14.6776 165.617 12.2628 165.317C11.9698 166.483 11.6769 167.649 11.375 168.85C10.789 167.976 10.2031 167.101 9.59939 166.2C7.84378 165.879 7.84378 165.879 5.93719 166.034C4.80191 166.089 3.66663 166.144 2.49695 166.2C2.78992 165.617 3.0829 165.034 3.38475 164.433C8.36534 164.433 13.3459 164.433 18.4774 164.433C18.4774 163.85 18.4774 163.267 18.4774 162.667Z" fill="#050716"/>
<path id="Vector_11" d="M77.0726 89.3502C78.6262 90.62 78.6262 90.62 79.736 92.0002C79.443 92.5832 79.15 93.1662 78.8482 93.7669C77.9693 93.7669 77.0903 93.7669 76.1848 93.7669C76.1848 93.1839 76.1848 92.6009 76.1848 92.0002C73.1085 93.312 73.1085 93.312 69.9701 94.6502C69.9701 93.4842 69.9701 92.3182 69.9701 91.1169C71.1539 90.8224 72.3376 90.528 73.5214 90.2336C74.1256 90.0149 74.7299 89.7963 75.3524 89.5711C76.2039 89.4617 76.2039 89.4617 77.0726 89.3502Z" fill="#050716"/>
<path id="Vector_12" d="M63.7555 63.7335C64.6344 64.025 65.5134 64.3165 66.4189 64.6169C65.4715 65.6787 64.5062 66.7248 63.5335 67.7637C62.7302 68.6399 62.7302 68.6399 61.9105 69.5338C60.2043 70.8002 60.2043 70.8002 58.2206 70.5483C57.7033 70.3399 57.186 70.1315 56.6531 69.9168C58.9417 67.5782 61.0179 65.5494 63.7555 63.7335Z" fill="#050716"/>
<path id="Vector_13" d="M47.775 125.567C48.6539 125.567 49.5329 125.567 50.4384 125.567C50.7314 126.441 51.0244 127.316 51.3262 128.217C51.9122 128.8 52.4981 129.383 53.1018 129.983C51.344 130.275 49.5861 130.566 47.775 130.867C47.775 130.284 47.775 129.701 47.775 129.1C47.1891 128.809 46.6031 128.517 45.9994 128.217C46.5853 127.342 47.1713 126.468 47.775 125.567Z" fill="#050716"/>
<path id="Vector_14" d="M29.1311 160.017C28.8381 161.766 28.5451 163.515 28.2433 165.317C27.3644 164.734 26.4854 164.151 25.5799 163.55C24.1101 163.21 22.6304 162.907 21.1409 162.667C23.7883 160.033 25.3913 160.017 29.1311 160.017Z" fill="#050716"/>
<path id="Vector_15" d="M77.0726 92.8835C80.0506 94.1096 81.6118 95.4331 83.2872 98.1835C83.2872 99.058 83.2872 99.9325 83.2872 100.834C82.7013 100.834 82.1153 100.834 81.5116 100.834C80.3672 99.543 80.3672 99.543 79.1811 97.8523C78.7851 97.2989 78.3892 96.7455 77.9812 96.1753C77.0726 94.6502 77.0726 94.6502 77.0726 92.8835Z" fill="#050716"/>
<path id="Vector_16" d="M99.2677 111.433C100.44 111.725 101.612 112.016 102.819 112.317C103.112 113.483 103.405 114.649 103.707 115.85C102.242 116.142 100.777 116.433 99.2677 116.733C99.2677 114.984 99.2677 113.235 99.2677 111.433Z" fill="#050716"/>
<path id="Vector_17" d="M121.463 78.7502C122.049 78.7502 122.635 78.7502 123.238 78.7502C126.844 84.2949 126.844 84.2949 126.568 87.5284C126.348 88.1296 126.128 88.7308 125.902 89.3502C125.609 89.3502 125.316 89.3502 125.014 89.3502C124.922 88.5122 124.831 87.6741 124.737 86.8107C124.406 83.7931 124.406 83.7931 121.463 82.2836C121.463 81.1176 121.463 79.9516 121.463 78.7502Z" fill="#050716"/>
<path id="Vector_18" d="M29.1311 160.017C30.303 160.891 31.4749 161.766 32.6823 162.667C31.8034 162.667 30.9245 162.667 30.0189 162.667C29.433 164.416 28.847 166.165 28.2433 167.967C27.6573 167.967 27.0714 167.967 26.4677 167.967C27.0886 165.187 28.0309 162.644 29.1311 160.017Z" fill="#050716"/>
</g>
</svg>
