<svg width="69" height="70" viewBox="0 0 69 70" fill="none" xmlns="http://www.w3.org/2000/svg">
<path d="M34.396 69.04C29.7017 69.04 25.2769 68.1416 21.1216 66.3447C16.9888 64.5479 13.3389 62.0659 10.1719 58.8989C7.00488 55.7319 4.52295 52.082 2.72607 47.9492C0.929199 43.7939 0.0307617 39.3691 0.0307617 34.6748C0.0307617 29.9805 0.929199 25.5669 2.72607 21.4341C4.52295 17.2788 6.99365 13.6177 10.1382 10.4507C13.3052 7.28369 16.9551 4.80176 21.0879 3.00488C25.2432 1.20801 29.668 0.30957 34.3623 0.30957C39.0566 0.30957 43.4814 1.20801 47.6367 3.00488C51.792 4.80176 55.4531 7.28369 58.6201 10.4507C61.7871 13.6177 64.269 17.2788 66.0659 21.4341C67.8628 25.5669 68.7612 29.9805 68.7612 34.6748C68.7612 39.3691 67.8628 43.7939 66.0659 47.9492C64.269 52.082 61.7871 55.7319 58.6201 58.8989C55.4531 62.0659 51.792 64.5479 47.6367 66.3447C43.5039 68.1416 39.0903 69.04 34.396 69.04ZM34.396 63.3125C38.3716 63.3125 42.0889 62.5713 45.5479 61.0889C49.0068 59.6064 52.0503 57.5625 54.6782 54.957C57.3062 52.3291 59.3501 49.2856 60.8101 45.8267C62.2925 42.3677 63.0337 38.6504 63.0337 34.6748C63.0337 30.6992 62.2925 26.9819 60.8101 23.5229C59.3276 20.064 57.2725 17.0205 54.6445 14.3926C52.0391 11.7646 48.9956 9.7207 45.5142 8.26074C42.0552 6.77832 38.3379 6.03711 34.3623 6.03711C30.3867 6.03711 26.6694 6.77832 23.2104 8.26074C19.7515 9.7207 16.7192 11.7646 14.1138 14.3926C11.5083 17.0205 9.46436 20.064 7.98193 23.5229C6.52197 26.9819 5.79199 30.6992 5.79199 34.6748C5.79199 38.6504 6.52197 42.3677 7.98193 45.8267C9.46436 49.2856 11.5083 52.3291 14.1138 54.957C16.7417 57.5625 19.7852 59.6064 23.2441 61.0889C26.7031 62.5713 30.4204 63.3125 34.396 63.3125ZM28.0957 47.8481C27.5791 48.1626 27.0625 48.2974 26.5459 48.2524C26.0293 48.2075 25.5913 48.0278 25.2319 47.7134C24.895 47.3765 24.7266 46.9385 24.7266 46.3994V22.9839C24.7266 22.4448 24.9062 22.0181 25.2656 21.7036C25.625 21.3892 26.063 21.2207 26.5796 21.1982C27.1187 21.1533 27.624 21.2656 28.0957 21.5352L47.2998 32.9229C47.749 33.1924 48.0522 33.563 48.2095 34.0347C48.3667 34.4839 48.3667 34.9443 48.2095 35.416C48.0747 35.8652 47.7715 36.2358 47.2998 36.5278L28.0957 47.8481Z" fill="#439EF4"/>
</svg>
