<svg width="129" height="103" viewBox="0 0 129 103" fill="none" xmlns="http://www.w3.org/2000/svg">
<g filter="url(#filter0_f_1_46)">
<path d="M35.9644 88.9955C32.1466 89.6864 28.9733 89.177 26.4445 87.4674C23.9156 85.7578 22.3058 82.9942 21.6149 79.1764L14.8134 41.5928C14.1271 37.8003 14.7065 34.6535 16.5517 32.1523C18.4221 29.6466 21.1777 28.0643 24.8185 27.4054L65.9291 19.9657C69.7469 19.2748 72.857 19.7955 75.2594 21.528C77.6619 23.2605 79.2062 26.023 79.8926 29.8155L86.694 67.3991C87.3849 71.2168 86.8457 74.3694 85.0764 76.8569C83.3071 79.3443 80.5135 80.9335 76.6958 81.6244L35.9644 88.9955ZM90.4792 58.8807L86.423 36.467L98.0726 22.0604C98.6247 21.3599 99.225 20.7813 99.8735 20.3245C100.547 19.8631 101.225 19.5707 101.908 19.4471C103.374 19.1818 104.639 19.462 105.703 20.2879C106.787 21.084 107.471 22.2658 107.754 23.8333L114.892 63.2752C115.176 64.8428 114.952 66.202 114.22 67.3527C113.509 68.4736 112.42 69.1668 110.954 69.4322C110.271 69.5557 109.533 69.5195 108.741 69.3235C107.969 69.0976 107.204 68.7661 106.446 68.3288L90.4792 58.8807Z" fill="#007AFF" fill-opacity="0.3"/>
</g>
<defs>
<filter id="filter0_f_1_46" x="0.841848" y="0.956533" width="127.857" height="102.045" filterUnits="userSpaceOnUse" color-interpolation-filters="sRGB">
<feFlood flood-opacity="0" result="BackgroundImageFix"/>
<feBlend mode="normal" in="SourceGraphic" in2="BackgroundImageFix" result="shape"/>
<feGaussianBlur stdDeviation="5.90137" result="effect1_foregroundBlur_1_46"/>
</filter>
</defs>
</svg>
